# xmcd
#
# Track frame offsets:
# 150
# 15395
# 27480
# 40772
# 53033
# 67343
# 85613
# 99369
# 146012
#
# Disc length: 2158 seconds
#
# Revision: 1
# Processed by: cddbd v1.5.1PL2 Copyright (c) Steve Scherf et al.
# Submitted via: CedeCatalogueitor 2.6.0.6 http://personales.ya.com/cdcatalogueitor
#
DISCID=6f086c09
DTITLE=Various Artist - Nina Simone -   -  Pastel Blues (reissue) [2006]
DYEAR=1900
DGENRE=
TTITLE0=01- Be My Husband 
TTITLE1=02 - nobody knows you when youre down and ou
TTITLE2=03- End Of The Line 
TTITLE3=04 - Trouble In Mind 
TTITLE4=05 - Tell Me More And More And Then Some
TTITLE5=06 - Chilly Winds Dont Blow 
TTITLE6=07 - Aint No Use
TTITLE7=08  - Strange Fruit 
TTITLE8=09  - Sinnerman 
EXTD=
EXTT0=
EXTT1=
EXTT2=
EXTT3=
EXTT4=
EXTT5=
EXTT6=
EXTT7=
EXTT8=
PLAYORDER=
